<svg xmlns="http://www.w3.org/2000/svg" width="182.0197" height="131.5702" viewBox="0 0 182.0197 131.5702"><defs><style>.a{fill:#003768;}</style></defs><path class="a" d="M58.0778,124.9363a2.8714,2.8714,0,0,1-.345,1.4611,2.91,2.91,0,0,1-.9183.9916,3.8835,3.8835,0,0,1-1.3312.56,7.1773,7.1773,0,0,1-1.5891.1711h-2.638V114.8952h2.9557a6.6555,6.6555,0,0,1,1.5459.1711,3.4041,3.4041,0,0,1,1.2333.5624,2.7194,2.7194,0,0,1,.7987.9889,3.28,3.28,0,0,1,.288,1.4347Zm1.497-11.6767a6.5173,6.5173,0,0,0-2.3446-1.1548,11.3923,11.3923,0,0,0-3.0074-.3721H47.7516V131.285h6.1533a11.5732,11.5732,0,0,0,3.021-.3774,7.1816,7.1816,0,0,0,2.4614-1.1468,5.454,5.454,0,0,0,1.6517-1.9752,6.1967,6.1967,0,0,0,.6032-2.8308v-6.9a6.7429,6.7429,0,0,0-.5434-2.8281,5.3031,5.3031,0,0,0-1.524-1.9672M36.9935,84.5331h-3.567V104.08h11.75v-3.16H36.9935Zm14.3169,0H47.7462v19.55H51.31Zm-14.0561,38.814H40.99v4.2269a5.8707,5.8707,0,0,1-1.7714.69,10.3959,10.3959,0,0,1-1.8636.144,7.0965,7.0965,0,0,1-1.6165-.1738,3.7854,3.7854,0,0,1-1.315-.5591,2.8268,2.8268,0,0,1-.8937-.9916,3.01,3.01,0,0,1-.3315-1.4645v-7.4166a2.729,2.729,0,0,1,.3451-1.3855,3.1751,3.1751,0,0,1,.9047-1.0029,4.0989,4.0989,0,0,1,1.3094-.6055,5.9817,5.9817,0,0,1,1.554-.2036,7.1954,7.1954,0,0,1,2.6488.5213,9.5583,9.5583,0,0,1,2.3852,1.3477l1.6084-2.5867a8.4731,8.4731,0,0,0-3.0481-1.8631,10.892,10.892,0,0,0-3.5943-.579,10.188,10.188,0,0,0-2.95.4212,7.7656,7.7656,0,0,0-2.4451,1.2031,5.7642,5.7642,0,0,0-1.6653,1.9865,5.8547,5.8547,0,0,0-.6195,2.7465v7.4166a6.2516,6.2516,0,0,0,.59,2.8281,5.5108,5.5108,0,0,0,1.622,1.9752,7.3318,7.3318,0,0,0,2.4449,1.1594,12.34,12.34,0,0,0,5.0531.2288,9.3574,9.3574,0,0,0,1.7387-.47,15.931,15.931,0,0,0,1.6844-.7634c.5651-.2958,1.1655-.6275,1.7931-.9916v-8.7126H37.2543Zm45.263-35.6516V84.5331H71.5256V104.08H83.1205v-3.16H75.0953V95.5167h6.2431V92.5015H75.0953v-4.806Zm43.31-3.1624h-4.6591V104.08h3.1649V88.646l7.9409,15.434h4.9472V84.5331h-3.1677v15.844Zm-98.82,13.4861a2.7632,2.7632,0,0,1-.3477,1.4068,3.1686,3.1686,0,0,1-.9074,1.0081,3.8189,3.8189,0,0,1-1.3068.59,6.5155,6.5155,0,0,1-1.554.1844H22.459a6.61,6.61,0,0,1-1.5811-.1844,4.2572,4.2572,0,0,1-1.3258-.5763,3,3,0,0,1-.921-.9916,2.87,2.87,0,0,1-.3422-1.4366V90.5721a2.6564,2.6564,0,0,1,.3422-1.3637,3.0866,3.0866,0,0,1,.9374-.9942,4.2758,4.2758,0,0,1,1.3366-.6055,5.9885,5.9885,0,0,1,1.524-.201h.4618a5.2081,5.2081,0,0,1,1.5078.2195,4.3652,4.3652,0,0,1,1.3122.6169,3.2243,3.2243,0,0,1,.9319.9942,2.5338,2.5338,0,0,1,.364,1.3643Zm3.5617,0V90.5721a5.3744,5.3744,0,0,0-.6467-2.659A6.38,6.38,0,0,0,28.21,85.9293,7.701,7.701,0,0,0,25.768,84.677a9.59,9.59,0,0,0-2.8771-.4317h-.4618a10.3926,10.3926,0,0,0-2.92.4125,7.5344,7.5344,0,0,0-2.4559,1.2416,6.1344,6.1344,0,0,0-1.6979,1.9832,5.4792,5.4792,0,0,0-.6329,2.6868v7.4471a5.89,5.89,0,0,0,.6193,2.7738,5.7158,5.7158,0,0,0,1.6654,1.9831,7.4291,7.4291,0,0,0,2.4614,1.1926,10.7118,10.7118,0,0,0,2.991.4046h.4319a10.4732,10.4732,0,0,0,2.9477-.4046,7.2829,7.2829,0,0,0,2.4451-1.2065,5.746,5.746,0,0,0,2.2848-4.74M63.1743,104.08V87.7254h5.8384V84.5331H53.8207v3.1624l5.784.03v16.3573h3.57ZM8.9189,91.9822A1.408,1.408,0,0,1,8.1826,93.33a3.3677,3.3677,0,0,1-1.6516.4046H3.57v-6.039H6.531a2.6687,2.6687,0,0,1,1.6952.5379,1.81,1.81,0,0,1,.6927,1.5348Zm1.8828-6.1259a5.3521,5.3521,0,0,0-1.8828-.9942,8.4442,8.4442,0,0,0-2.3879-.329H0V104.08H3.57V96.8943H6.588a7.94,7.94,0,0,0,2.2738-.3177,5.4961,5.4961,0,0,0,1.8664-.9345,4.4456,4.4456,0,0,0,1.2823-1.5381A4.5491,4.5491,0,0,0,12.486,91.98V89.7682a5.4844,5.4844,0,0,0-.4455-2.2736,4.6407,4.6407,0,0,0-1.2388-1.6383m130.57,37.9226,2.5348-8.4818,2.502,8.4818Zm.4021-12.1874-6.4711,19.6935h3.7951l1.38-4.6322h6.819l1.3529,4.6322h3.7381l-6.27-19.6935Zm22.0732-27.0584h-4.689l-5.6344,7.4816h-1.13V84.5331h-3.567V104.08h3.567V95.4517h1.2605l5.936,8.6283h4.86l-7.9735-10.6061Zm-29.6256,27.2h-4.6891l-5.6372,7.4823h-1.1329v-7.4823h-3.5643V131.285h3.5643v-8.6337h1.266l5.9334,8.6337h4.86l-7.9737-10.6089Zm36.7842-15.1561L173.5326,88.1l2.5022,8.4765Zm4.7461-12.1848h-4.3468L164.9315,104.08h3.8008l1.38-4.6269h6.8161l1.3529,4.6269H182.02Zm-80.04,16.4144a8.8343,8.8343,0,0,1-2.7194.4019,4.79,4.79,0,0,1-2.7738-.7607,2.7338,2.7338,0,0,1-1.1084-2.4282V90.6026a2.9507,2.9507,0,0,1,.3016-1.3643,2.8062,2.8062,0,0,1,.834-.9916,3.8378,3.8378,0,0,1,1.2362-.62,5.0392,5.0392,0,0,1,1.4832-.2195,5.3281,5.3281,0,0,1,2.5184.5624,9.38,9.38,0,0,1,1.97,1.4234l1.956-2.4156a15.813,15.813,0,0,0-1.3421-1.2058,6.8856,6.8856,0,0,0-1.3773-.8642,6.4666,6.4666,0,0,0-1.6382-.5054,12.5569,12.5569,0,0,0-2.0865-.1572,9.4752,9.4752,0,0,0-2.8769.4317,6.9888,6.9888,0,0,0-2.3554,1.2523,6.0494,6.0494,0,0,0-1.6029,2,5.91,5.91,0,0,0-.5868,2.6763v7.4139a6.2861,6.2861,0,0,0,.576,2.7711,5.5276,5.5276,0,0,0,1.5675,1.9858,6.76,6.76,0,0,0,2.358,1.19,10.2834,10.2834,0,0,0,2.9477.4072,12.3536,12.3536,0,0,0,3.4665-.459,8.0633,8.0633,0,0,0,3.032-1.755l-1.5486-2.6165a6.2173,6.2173,0,0,1-2.23,1.2635m-.1765,26.7678L87.31,111.7327H82.6533V131.285h3.1622V115.84l7.9383,15.4447h4.95V111.7327H95.5359ZM69.1,123.7789l2.532-8.4818,2.5019,8.4818Zm.4021-12.1874L63.0278,131.285h3.7978l1.38-4.6322H75.022l1.3557,4.6322h3.7381l-6.27-19.6935Zm44.2225-18.574h-8.0225V84.5331h-3.567V104.08h3.567v-7.9h8.0225v7.9h3.5672V84.5331h-3.5672Zm-22.19,14.9366v.0054l-1.2851,4.7515h2.0838l2.7058-4.7569Zm23.198,13.8416a7.5631,7.5631,0,0,0-2-1.1793,19.5247,19.5247,0,0,0-2.67-.8635c-.4837-.1141-.97-.2448-1.4725-.386a6.7045,6.7045,0,0,1-1.353-.5486,3.4621,3.4621,0,0,1-.9888-.7746,1.6131,1.6131,0,0,1-.3913-1.1057,1.9577,1.9577,0,0,1,.3016-1.1083,2.38,2.38,0,0,1,.7933-.72,3.6549,3.6549,0,0,1,1.1247-.3861,7.4171,7.4171,0,0,1,1.2877-.1193,4.894,4.894,0,0,1,1.2252.1737,8.665,8.665,0,0,1,1.2552.4484,10.1612,10.1612,0,0,1,1.1165.59,5.7972,5.7972,0,0,1,.8667.6354l1.9831-2.649a12.1444,12.1444,0,0,0-2.79-1.6648,9.0622,9.0622,0,0,0-3.6567-.6931,11.2615,11.2615,0,0,0-2.7439.32,6.7566,6.7566,0,0,0-2.244.973,4.7713,4.7713,0,0,0-1.524,1.7139,5.2454,5.2454,0,0,0-.56,2.4859,5.5472,5.5472,0,0,0,.3883,2.1841,4.5061,4.5061,0,0,0,1.1357,1.5978,7.1924,7.1924,0,0,0,1.8256,1.1654,23.4447,23.4447,0,0,0,2.4342.9179c.4754.1307.9944.2746,1.5512.4185a9.0633,9.0633,0,0,1,1.5514.5466,3.84,3.84,0,0,1,1.1953.8171,1.7138,1.7138,0,0,1,.4726,1.2363,2.0175,2.0175,0,0,1-.3477,1.2065,2.4167,2.4167,0,0,1-.8883.7767,4.369,4.369,0,0,1-1.2388.4158,7.1785,7.1785,0,0,1-1.38.13,4.6836,4.6836,0,0,1-1.4045-.2308,7.3528,7.3528,0,0,1-1.44-.6029,8.2723,8.2723,0,0,1-1.2823-.8477,4.5849,4.5849,0,0,1-.9345-.9915l-2.3282,2.2086a6.7027,6.7027,0,0,0,1.4208,1.5434,8.8422,8.8422,0,0,0,1.8419,1.1329,9.84,9.84,0,0,0,2.1163.703,10.6275,10.6275,0,0,0,2.274.2474,10.9922,10.9922,0,0,0,2.7411-.3316,6.7881,6.7881,0,0,0,2.29-1.032,5.1737,5.1737,0,0,0,1.554-1.7822,5.3276,5.3276,0,0,0,.5733-2.5482,5.8323,5.8323,0,0,0-.4267-2.3526,4.5925,4.5925,0,0,0-1.255-1.6708M42.4188,11.3152l-3.8362,2.8825L40.21,16.3626l3.1106-2.3393h3.6133l1.1519-8.49L39.998,4.0645l-.766,4.3788L41.9,8.9082l.2988-1.6953,2.858.5187L44.57,11.3152ZM141.2337,104.08h3.5644V84.5305h-3.5644ZM81.2513,24.63a1.5883,1.5883,0,0,0-1-.3151H77.4671v3.5969h2.7845a2.0062,2.0062,0,0,0,.9753-.2388.829.829,0,0,0,.432-.7985V25.5368a1.0683,1.0683,0,0,0-.4076-.9073m8.9109-2.5184H91.86V52.044h-1.698ZM83.7616,26.874a2.6126,2.6126,0,0,1-1.035,2.1648,3.3677,3.3677,0,0,1-1.103.5519,4.6307,4.6307,0,0,1-1.3367.187H77.47v4.2H75.367V22.4533h4.8846a4.9076,4.9076,0,0,1,1.4073.19,3.18,3.18,0,0,1,1.1111.59,2.6737,2.6737,0,0,1,.7308.9671,3.1566,3.1566,0,0,1,.2608,1.3364ZM83.4628,49.26c-.3723.2143-.7281.41-1.06.5864a8.8311,8.8311,0,0,1-.9942.4457,5.4672,5.4672,0,0,1-1.0216.28,7.1542,7.1542,0,0,1-1.1817.0922,6.8574,6.8574,0,0,1-1.7958-.2255,4.3093,4.3093,0,0,1-1.44-.6872,3.1629,3.1629,0,0,1-.9562-1.1627,3.7093,3.7093,0,0,1-.3532-1.6681V42.5488a3.45,3.45,0,0,1,.3667-1.6217,3.3837,3.3837,0,0,1,.9807-1.168,4.61,4.61,0,0,1,1.4454-.7143A6.135,6.135,0,0,1,79.1867,38.8a6.4987,6.4987,0,0,1,2.1245.34,5.0578,5.0578,0,0,1,1.7957,1.1l-.9481,1.5268a5.5728,5.5728,0,0,0-1.41-.7959,4.2385,4.2385,0,0,0-1.562-.3045,3.5135,3.5135,0,0,0-.9128.1168,2.3656,2.3656,0,0,0-.7715.3562,1.8342,1.8342,0,0,0-.5352.5949,1.6382,1.6382,0,0,0-.2012.8145V46.92a1.8318,1.8318,0,0,0,.193.8669,1.6665,1.6665,0,0,0,.527.581,2.2165,2.2165,0,0,0,.777.3316,4.0855,4.0855,0,0,0,.9536.1029,6.5372,6.5372,0,0,0,1.0975-.0836,3.65,3.65,0,0,0,1.0486-.4079V45.8147H79.6865V44.122h3.7763Zm17.11-26.537L99.9668,25.1h2.896l-.9128-2.3771,1.6137-2.6975,1.6137,2.6975L104.2646,25.1h2.8961l-.6-2.3718,2.4206-1.6329-.5136,4.0074v2.4885H98.6655V25.1l-.5162-4.0074Zm7.1993,14.282-3.1079-.394.41,3.1107h-2.9966l.413-3.0861-3.1324.3694V34.0292l3.1324.4185-.413-3.1107h2.9966l-.41,3.065,3.1079-.3728Zm0,12.1244L104.664,48.74l.41,3.1054h-2.9966l.413-3.0809-3.1324.3642V46.1543l3.1324.4185-.413-3.116h2.9966l-.41,3.0722,3.1079-.3747Zm7.2863,7.27V12.85H66.9642V56.399L91.01,65.6329ZM21.9158,42.1521l5.05-3.7892V32.8314l5.3682-4.04L30.7559,26.7l7.99-5.9846,9.4326,5.137V35.8525L58.632,37.3681l1.622-4.7324h4.0668V10.2069h53.3808V35.2954h4.07l1.744,5.1018,10.329-4.86V25.8519l9.4352-5.137L151.261,26.7l-1.5757,2.0919,5.3711,4.04v5.5315l5.05,3.7892V53.06h-2.6759v2.7061h8.8021l2.5239,3.57L162.519,71.9086h-9.2584l1.9452-3.9391h3.8414l4.1918-8.4466H152.9671V46.9581L141.201,38.1427l2.6027-3.4124-2.1571-1.6409-3.9555,5.1973v3.0238l-13.1788,2.8852L120.41,42.9918v-2.263h-2.7084V58.2163L91.01,68.461,64.3208,58.2163V38.0612H61.615v2.2736l-4.2517,1.2416H44.3286v-3.29L40.373,33.0894,38.2187,34.73l2.6026,3.4124L29.0524,46.9581V59.5229H18.7805L22.9752,67.97h3.8387l1.9479,3.9391H19.506L13.26,59.3332l2.5265-3.567h8.8076V53.06H21.9158Zm28.9736-8.6933.038.0544-.038-.0027ZM61.615,27.5094V29.93H58.3223l-1.5241,4.4385-5.379-.7793,8.09-6.08ZM50.8894,24.2872l7.528-3.7189,1.7877-5.2191h1.41v9.46H58.6076l-7.7182,5.7943ZM120.41,27.5094h2.1029l8.49,6.3759-5.9062,2.7764L123.7,32.5866h-3.29Zm0-12.16h1.4046l1.7877,5.2191,7.5333,3.7189v6.3163l-7.7209-5.7943H120.41ZM14.5778,32.2855,12.956,30.12l-2.1679,1.6223L9.2613,29.7346,13.4857,26.57l3.6866,4.8272v2.0866l-4.9688,3.7382v7.6613l2.2113,2.89,4.795-3.5916V53.06H14.3849L10.117,59.0885l7.7073,15.5262H31.7638l.0082-2.7306-3.2737-6.618H24.6542l-1.5079-3.0344H31.761v-13.92l2.858-2.141,10.9838,5.6211v7.4736L42.992,62.9573,45.4832,67.97h3.836l1.9478,3.9391H42.0139l-4.76-9.5821,2.3418-3.3116V53.06H34.4479v2.7061h2.44v2.39L34.111,62.08l6.2213,12.5349H54.2691l.0081-2.7306-3.2737-6.618H47.1594l-1.027-2.0621,2.1788-3.0775v-9.992L37.0288,44.3668,41.62,40.9245v3.3607H57.7519l3.8605-1.13V60.08L91.01,71.3568,120.41,60.08V45.812l4.0044,1.1733,15.9826-3.4987V40.9245l4.5911,3.4423-11.28,5.7677v9.992l2.1788,3.0775L134.86,65.2661h-3.8388l-3.2763,6.618.0081,2.7306H141.69L147.9141,62.08l-2.7819-3.9232v-2.39h2.4423V53.06h-5.1509v5.9548l2.3418,3.3116-4.7569,9.5821h-9.256l1.9533-3.9391h3.8362l2.4884-5.0122-2.6161-3.6924V51.7913L147.4005,46.17l2.858,2.141v13.92h8.6148l-1.5051,3.0344h-3.8441l-3.2737,6.618.0081,2.7306h13.9368l7.71-15.5262L167.6346,53.06h-4.8194V44.1817l4.795,3.5916,2.206-2.89V37.2241l-4.9688-3.7381V31.4l3.6838-4.83,4.2272,3.1678-1.5268,2.005L169.0664,30.12l-1.6246,2.1655,4.32,3.2327,3.7409-4.9088V28.4061L168.01,22.7989l-5.8707,7.6852V34.839l4.9688,3.7355v5.393L167.0833,44l-9.3157-6.9875V31.4783l-5.5747-4.1918,1.5729-2.1-7.8783-5.895,2.4394-1.3259,6.9631,5.2185-1.5621,2.092,5.0421,3.7792,1.6191-2.1708-5.0258-3.7627,1.57-2.0919-5.99-4.4883.0381-.0239V13.42L158.46,19.02l-1.57,2.0946,4.07,3.0457,1.6218-2.1655-4.0478-3.0318,1.5676-2.0972-9.12-6.827V6.8893l10.6466,7.971-1.5674,2.0946,3.0482,2.2823,1.6245-2.1682-3.0318-2.2657,1.5675-2.0946L150.9813,3.5073V0h-2.7086V2.9316l-4.26.7714.4835,2.6623,3.7763-.6818v9.2286l-7.289,3.9716-3.3551-2.5158-1.6245,2.1656,2.3661,1.7709-4.3657,2.38-8.2017-4.0512-2.0511-5.9925H120.41v-5.14H61.615v5.1429H58.268l-2.0511,5.9932-8.199,4.0479-4.3658-2.3771,2.3662-1.7742-1.6245-2.1656-3.3524,2.5184L33.747,14.9121V5.6861l3.7789.6819.4809-2.6624-4.26-.774V.0027H31.0439V3.5073L18.7562,12.7087l1.5648,2.0946-3.0346,2.2683,1.6246,2.1656,3.0509-2.2823-1.57-2.0946,10.6523-7.971v3.1491l-9.1255,6.827,1.5729,2.0972-4.05,3.0344L21.0653,24.16,25.13,21.1142l-1.57-2.0919L31.0439,13.42v3.0974l.0379.0239L25.0861,21.03l1.57,2.0919L21.63,26.8846l1.6218,2.1708,5.0423-3.7766L26.727,23.1842l6.9684-5.2185,2.4314,1.3259-7.8676,5.895,1.5676,2.1-5.5692,4.1918v5.5342L14.9338,44l-.0191-.0325v-5.393l4.9662-3.7355V30.4841l-5.8682-7.6852L6.5174,28.4061v2.2033l3.7436,4.9088ZM138.6991,14.0233l3.1133,2.3393,1.6273-2.1649-3.8361-2.8825h-2.1488l-.489-3.5836,2.8552-.5187.2961,1.6953,2.6705-.4649-.7633-4.3788-8.0878,1.4691,1.1493,8.49Z"/></svg>